<svg version="1.1" id="Layer_1" xmlns="https://www.w3.org/2000/svg" xmlns:xlink="https://www.w3.org/1999/xlink" x="0px" y="0px"
	 width="100%" viewBox="0 0 314 327" enable-background="new 0 0 314 327" xml:space="preserve">
<path fill="#000000" opacity="1.000000" stroke="none" 
	d="
M211.000000,328.000000 
	C140.666672,328.000000 70.833359,328.000000 1.000028,328.000000 
	C1.000019,219.000031 1.000019,110.000061 1.000009,1.000072 
	C105.666618,1.000048 210.333237,1.000048 314.999878,1.000024 
	C314.999939,109.999931 314.999939,218.999863 314.999969,327.999878 
	C280.500000,328.000000 246.000000,328.000000 211.000000,328.000000 
M196.901230,216.458252 
	C199.555878,214.210678 202.573883,212.273590 204.804276,209.663467 
	C216.408936,196.083084 223.003525,180.763016 222.110397,162.375992 
	C221.090576,141.380447 212.182098,125.009697 195.423584,112.663826 
	C182.836777,103.391212 168.661240,100.131302 153.187119,100.936203 
	C136.541840,101.802017 122.495621,108.711838 111.388962,120.382935 
	C99.230949,133.158813 93.092720,148.801559 93.905449,167.007385 
	C95.016716,191.900742 106.302040,210.534637 128.135788,221.851273 
	C151.487839,233.954865 174.543442,231.751831 196.901230,216.458252 
M243.341293,88.122185 
	C248.866501,82.604774 254.441818,77.136345 259.899323,71.552742 
	C263.550232,67.817474 263.670258,65.076698 260.552856,62.165108 
	C257.235016,59.066345 254.308762,60.166985 251.493866,63.006775 
	C246.230759,68.316429 240.978394,73.638847 235.614090,78.845222 
	C232.784729,81.591301 231.361725,84.760933 233.908798,88.034439 
	C236.287262,91.091240 239.670227,90.659172 243.341293,88.122185 
M61.538010,269.120575 
	C68.345184,262.564362 75.274162,256.127808 81.893890,249.387482 
	C84.230858,247.007950 84.185226,243.627487 81.601715,241.401276 
	C78.777435,238.967529 75.417549,239.209518 72.658531,241.911285 
	C66.955711,247.495804 61.183483,253.027695 55.815186,258.923065 
	C54.433510,260.440399 53.259464,264.040588 54.086578,265.249390 
	C55.465759,267.264984 58.536369,268.123230 61.538010,269.120575 
M240.497360,255.997299 
	C244.378876,259.867462 248.235092,263.763458 252.150696,267.598785 
	C254.794250,270.188141 257.623718,270.550293 260.474884,267.908417 
	C263.560425,265.049408 263.085541,261.860992 260.544098,259.181976 
	C254.830383,253.158875 248.905777,247.331589 242.955643,241.538986 
	C240.359711,239.011780 237.086258,238.653458 234.553055,241.247208 
	C231.917252,243.945953 232.269211,247.307083 234.754623,250.170395 
	C236.384079,252.047623 238.241074,253.727341 240.497360,255.997299 
M56.389500,61.445976 
	C52.257076,65.759209 52.102291,67.419891 55.981552,71.422974 
	C61.300674,76.911880 66.730904,82.294968 72.185608,87.649963 
	C75.555161,90.957932 79.541100,91.440880 81.684807,88.555374 
	C84.052322,85.368607 83.621979,82.086060 80.710960,79.204559 
	C75.750702,74.294579 70.703865,69.461266 65.956993,64.350899 
	C63.436096,61.636963 60.718632,60.460789 56.389500,61.445976 
M159.267838,56.907383 
	C163.243454,55.767944 163.968155,52.637409 163.979767,49.120754 
	C164.003952,41.790989 163.948502,34.460804 164.003571,27.131374 
	C164.034164,23.058350 162.546844,20.292221 158.127365,20.083521 
	C154.094040,19.893059 152.068588,22.323452 152.025620,27.374983 
	C151.963287,34.704315 152.194427,42.041050 151.940002,49.362103 
	C151.772339,54.186817 153.942200,56.446045 159.267838,56.907383 
M24.607033,159.000610 
	C23.110985,159.004410 21.614153,159.041229 20.119041,159.005630 
	C16.054354,158.908859 13.297436,160.457123 13.083423,164.862411 
	C12.887892,168.887253 15.321648,170.929901 20.341026,170.973740 
	C27.654528,171.037613 34.969090,171.018570 42.282978,170.985580 
	C47.258152,170.963135 50.027454,168.744263 49.881275,164.628311 
	C49.715702,159.966370 46.181267,159.163300 42.534050,159.060883 
	C36.886581,158.902313 31.231709,159.007309 24.607033,159.000610 
M280.551025,170.999512 
	C285.869812,170.992096 291.188629,170.985382 296.507416,170.977020 
	C300.488708,170.970764 302.883423,169.047089 302.888184,165.011948 
	C302.892914,160.983231 300.517212,159.030075 296.530457,159.025558 
	C288.552277,159.016541 280.572235,159.120621 272.596649,158.975632 
	C268.305756,158.897644 266.560089,161.393082 266.155487,165.007858 
	C265.688812,169.176651 268.845917,170.387802 272.104523,170.863419 
	C274.548706,171.220139 277.080536,170.976059 280.551025,170.999512 
M155.948273,273.190887 
	C154.635727,275.851044 152.397736,278.441406 152.190872,281.184906 
	C151.653900,288.306610 151.963287,295.496094 152.026062,302.657715 
	C152.070129,307.684570 154.123199,310.123138 158.157410,309.916809 
	C162.582550,309.690491 164.033295,306.898102 164.003876,302.839142 
	C163.950745,295.510803 164.020432,288.181641 163.986343,280.853058 
	C163.959778,275.143616 162.755585,273.894073 155.948273,273.190887 
z"/>
<path fill="#404040" opacity="1.000000" stroke="none" 
	d="
M196.598724,216.657806 
	C174.543442,231.751831 151.487839,233.954865 128.135788,221.851273 
	C106.302040,210.534637 95.016716,191.900742 93.905449,167.007385 
	C93.092720,148.801559 99.230949,133.158813 111.388962,120.382935 
	C122.495621,108.711838 136.541840,101.802017 153.187119,100.936203 
	C168.661240,100.131302 182.836777,103.391212 195.423584,112.663826 
	C212.182098,125.009697 221.090576,141.380447 222.110397,162.375992 
	C223.003525,180.763016 216.408936,196.083084 204.804276,209.663467 
	C202.573883,212.273590 199.555878,214.210678 196.598724,216.657806 
z"/>
<path fill="#404040" opacity="1.000000" stroke="none" 
	d="
M243.069733,88.387535 
	C239.670227,90.659172 236.287262,91.091240 233.908798,88.034439 
	C231.361725,84.760933 232.784729,81.591301 235.614090,78.845222 
	C240.978394,73.638847 246.230759,68.316429 251.493866,63.006775 
	C254.308762,60.166985 257.235016,59.066345 260.552856,62.165108 
	C263.670258,65.076698 263.550232,67.817474 259.899323,71.552742 
	C254.441818,77.136345 248.866501,82.604774 243.069733,88.387535 
z"/>
<path fill="#404040" opacity="1.000000" stroke="none" 
	d="
M61.216419,269.294678 
	C58.536369,268.123230 55.465759,267.264984 54.086578,265.249390 
	C53.259464,264.040588 54.433510,260.440399 55.815186,258.923065 
	C61.183483,253.027695 66.955711,247.495804 72.658531,241.911285 
	C75.417549,239.209518 78.777435,238.967529 81.601715,241.401276 
	C84.185226,243.627487 84.230858,247.007950 81.893890,249.387482 
	C75.274162,256.127808 68.345184,262.564362 61.216419,269.294678 
z"/>
<path fill="#404040" opacity="1.000000" stroke="none" 
	d="
M240.246765,255.746399 
	C238.241074,253.727341 236.384079,252.047623 234.754623,250.170395 
	C232.269211,247.307083 231.917252,243.945953 234.553055,241.247208 
	C237.086258,238.653458 240.359711,239.011780 242.955643,241.538986 
	C248.905777,247.331589 254.830383,253.158875 260.544098,259.181976 
	C263.085541,261.860992 263.560425,265.049408 260.474884,267.908417 
	C257.623718,270.550293 254.794250,270.188141 252.150696,267.598785 
	C248.235092,263.763458 244.378876,259.867462 240.246765,255.746399 
z"/>
<path fill="#404040" opacity="1.000000" stroke="none" 
	d="
M56.763405,61.320740 
	C60.718632,60.460789 63.436096,61.636963 65.956993,64.350899 
	C70.703865,69.461266 75.750702,74.294579 80.710960,79.204559 
	C83.621979,82.086060 84.052322,85.368607 81.684807,88.555374 
	C79.541100,91.440880 75.555161,90.957932 72.185608,87.649963 
	C66.730904,82.294968 61.300674,76.911880 55.981552,71.422974 
	C52.102291,67.419891 52.257076,65.759209 56.763405,61.320740 
z"/>
<path fill="#404040" opacity="1.000000" stroke="none" 
	d="
M158.874954,56.918259 
	C153.942200,56.446045 151.772339,54.186817 151.940002,49.362103 
	C152.194427,42.041050 151.963287,34.704315 152.025620,27.374983 
	C152.068588,22.323452 154.094040,19.893059 158.127365,20.083521 
	C162.546844,20.292221 164.034164,23.058350 164.003571,27.131374 
	C163.948502,34.460804 164.003952,41.790989 163.979767,49.120754 
	C163.968155,52.637409 163.243454,55.767944 158.874954,56.918259 
z"/>
<path fill="#404040" opacity="1.000000" stroke="none" 
	d="
M25.093504,159.000580 
	C31.231709,159.007309 36.886581,158.902313 42.534050,159.060883 
	C46.181267,159.163300 49.715702,159.966370 49.881275,164.628311 
	C50.027454,168.744263 47.258152,170.963135 42.282978,170.985580 
	C34.969090,171.018570 27.654528,171.037613 20.341026,170.973740 
	C15.321648,170.929901 12.887892,168.887253 13.083423,164.862411 
	C13.297436,160.457123 16.054354,158.908859 20.119041,159.005630 
	C21.614153,159.041229 23.110985,159.004410 25.093504,159.000580 
z"/>
<path fill="#404040" opacity="1.000000" stroke="none" 
	d="
M280.062195,170.999496 
	C277.080536,170.976059 274.548706,171.220139 272.104523,170.863419 
	C268.845917,170.387802 265.688812,169.176651 266.155487,165.007858 
	C266.560089,161.393082 268.305756,158.897644 272.596649,158.975632 
	C280.572235,159.120621 288.552277,159.016541 296.530457,159.025558 
	C300.517212,159.030075 302.892914,160.983231 302.888184,165.011948 
	C302.883423,169.047089 300.488708,170.970764 296.507416,170.977020 
	C291.188629,170.985382 285.869812,170.992096 280.062195,170.999496 
z"/>
<path fill="#404040" opacity="1.000000" stroke="none" 
	d="
M156.343414,273.142456 
	C162.755585,273.894073 163.959778,275.143616 163.986343,280.853058 
	C164.020432,288.181641 163.950745,295.510803 164.003876,302.839142 
	C164.033295,306.898102 162.582550,309.690491 158.157410,309.916809 
	C154.123199,310.123138 152.070129,307.684570 152.026062,302.657715 
	C151.963287,295.496094 151.653900,288.306610 152.190872,281.184906 
	C152.397736,278.441406 154.635727,275.851044 156.343414,273.142456 
z"/>
</svg>