<svg version="1.1" id="Layer_1" xmlns="https://www.w3.org/2000/svg" xmlns:xlink="https://www.w3.org/1999/xlink" x="0px" y="0px"
	 width="100%" viewBox="0 0 314 327" enable-background="new 0 0 314 327" xml:space="preserve">
<path fill="#000000" opacity="1.000000" stroke="none" 
	d="
M146.000000,328.000000 
	C97.333344,328.000000 49.166683,328.000000 1.000019,328.000000 
	C1.000013,219.000031 1.000013,110.000053 1.000006,1.000063 
	C105.666618,1.000042 210.333237,1.000042 314.999878,1.000021 
	C314.999939,109.999931 314.999939,218.999863 314.999969,327.999878 
	C258.833344,328.000000 202.666672,328.000000 146.000000,328.000000 
M147.468765,156.978622 
	C123.470718,121.941177 124.173096,86.676071 146.267319,51.229168 
	C95.366096,55.153187 44.711197,97.092308 43.347046,163.396011 
	C42.109905,223.526367 91.172707,284.196808 168.835800,277.853577 
	C223.974731,273.350037 266.421967,228.191742 270.787476,175.895920 
	C264.668030,179.020004 258.579742,182.796570 252.006256,185.298462 
	C245.264496,187.864380 238.131561,189.630966 231.022308,190.955643 
	C216.057724,193.743973 201.402924,191.880829 187.178452,186.608582 
	C171.292664,180.720520 158.323410,170.867416 147.468765,156.978622 
z"/>
<path fill="#BEBFBA" opacity="1.000000" stroke="none" 
	d="
M147.729706,157.232620 
	C158.323410,170.867416 171.292664,180.720520 187.178452,186.608582 
	C201.402924,191.880829 216.057724,193.743973 231.022308,190.955643 
	C238.131561,189.630966 245.264496,187.864380 252.006256,185.298462 
	C258.579742,182.796570 264.668030,179.020004 270.787476,175.895920 
	C266.421967,228.191742 223.974731,273.350037 168.835800,277.853577 
	C91.172707,284.196808 42.109905,223.526367 43.347046,163.396011 
	C44.711197,97.092308 95.366096,55.153187 146.267319,51.229168 
	C124.173096,86.676071 123.470718,121.941177 147.729706,157.232620 
z"/>
</svg>